<svg width="1200" height="720" viewBox="0 0 1200 720" fill="none" xmlns="http://www.w3.org/2000/svg">
  <rect width="1200" height="720" rx="28" fill="#F7F4ED"/>
  <rect x="70" y="108" width="280" height="470" rx="24" fill="#FFFDF8" stroke="#DCCFBE" stroke-width="3"/>
  <rect x="460" y="108" width="280" height="470" rx="24" fill="#FFFDF8" stroke="#DCCFBE" stroke-width="3"/>
  <rect x="850" y="108" width="280" height="470" rx="24" fill="#FFFDF8" stroke="#DCCFBE" stroke-width="3"/>
  <text x="110" y="164" fill="#154F4A" font-family="Helvetica, Arial, sans-serif" font-size="24" font-weight="700">session update</text>
  <text x="500" y="164" fill="#154F4A" font-family="Helvetica, Arial, sans-serif" font-size="24" font-weight="700">router state</text>
  <text x="900" y="164" fill="#154F4A" font-family="Helvetica, Arial, sans-serif" font-size="24" font-weight="700">rendered UI</text>
  <rect x="110" y="208" width="200" height="72" rx="14" fill="#E7F0EE"/>
  <text x="145" y="252" fill="#1F1A17" font-family="Helvetica, Arial, sans-serif" font-size="22">auth added</text>
  <rect x="110" y="334" width="200" height="72" rx="14" fill="#E7F0EE"/>
  <text x="127" y="378" fill="#1F1A17" font-family="Helvetica, Arial, sans-serif" font-size="22">sync event fires</text>
  <rect x="500" y="272" width="200" height="72" rx="14" fill="#DDF3F0"/>
  <text x="572" y="316" fill="#1F1A17" font-family="Helvetica, Arial, sans-serif" font-size="22">push()</text>
  <rect x="890" y="460" width="200" height="72" rx="14" fill="#F3E7D9"/>
  <text x="940" y="504" fill="#1F1A17" font-family="Helvetica, Arial, sans-serif" font-size="22">old screen</text>
  <path d="M310 244H476" stroke="#154F4A" stroke-width="5"/>
  <path d="M700 308H854" stroke="#154F4A" stroke-width="5" stroke-dasharray="14 14"/>
  <path d="M310 370H460" stroke="#8B5E34" stroke-width="5"/>
  <path d="M600 406V470" stroke="#8B5E34" stroke-width="5" stroke-dasharray="12 12"/>
  <rect x="530" y="398" width="140" height="52" rx="12" fill="#FFF1DE" stroke="#8B5E34" stroke-width="2"/>
  <text x="557" y="430" fill="#8B5E34" font-family="Helvetica, Arial, sans-serif" font-size="18" font-weight="700">gap</text>
  <text x="70" y="72" fill="#1F1A17" font-family="Helvetica, Arial, sans-serif" font-size="34" font-weight="700">The router moved, but the rendered tree missed the handoff.</text>
  <text x="70" y="640" fill="#6B625C" font-family="Helvetica, Arial, sans-serif" font-size="22">Solid line: event reaches the next layer. Dashed line: intended update, but no live subscriber carries it into the UI.</text>
</svg>
